# xmcd CD database file
#
# Track frame offsets:
#	150
#	24792
#	42207
#	61838
#	75618
#	87678
#	114309
#	142225
#	167322
#	176979
#	201109
#	229294
#	255292
#	264048
#
# Disc length: 3752 seconds
#
# Revision: 7
# Processed by: cddbd v1.5.2PL0 Copyright (c) Steve Scherf et al.
# Submitted via: CDex 1.51
#
DISCID=af0ea60e
DTITLE=Various Artist - Blue Note Trip Vol. 4 - Jazzanova [CD 2)
DYEAR=2005
DGENRE=Jazz
TTITLE0=Bobby Hutcherson - Love Song
TTITLE1=Horace Silver - Nobody Knows
TTITLE2=Chico Hamilton - The Morning Side Of Love
TTITLE3=Waters - Sitting Here All Alone
TTITLE4=Gene Harris - Losalamitoslatinfunklovesong
TTITLE5=Curtis Fuller - Quantrale
TTITLE6=Horace Silver Quintet - Senor Blues (Vocal Version)
TTITLE7=Tina Brooks - Theme For Doris
TTITLE8=Sheila Jordan - Baltimore Oriole
TTITLE9=Charlie Rouse - Meci Bon Dieu
TTITLE10=Duke Pearson - Xibaba
TTITLE11=Bobby Hutcherson - Hello To The Wind
TTITLE12=Eddie Gale - Song Of Will
TTITLE13=Bobbi Humphrey - Is This All
EXTD=YEAR: 2005
EXTT0=
EXTT1=
EXTT2=
EXTT3=
EXTT4=
EXTT5=
EXTT6=
EXTT7=
EXTT8=
EXTT9=
EXTT10=
EXTT11=
EXTT12=
EXTT13=
PLAYORDER=
